<svg width="136" height="40" viewBox="0 0 136 40" fill="none" xmlns="http://www.w3.org/2000/svg" aria-hidden="true">
  <defs>
    <linearGradient id="activ-logo-ring-white" x1="3.15625" y1="3.15625" x2="40" y2="40" gradientUnits="userSpaceOnUse">
      <stop stop-color="#FCFFA4" />
      <stop offset="0.1667" stop-color="#FBB91E" />
      <stop offset="0.3333" stop-color="#FF6626" />
      <stop offset="0.5" stop-color="#C43C4E" />
      <stop offset="0.6667" stop-color="#8F2468" />
      <stop offset="0.8333" stop-color="#410A67" />
      <stop offset="1" stop-color="#000003" />
    </linearGradient>
  </defs>
  <path
    fill-rule="evenodd"
    clip-rule="evenodd"
    d="M37.125 20C37.125 10.5421 29.4579 2.875 20 2.875C10.5421 2.875 2.875 10.5421 2.875 20C2.875 29.4579 10.5421 37.125 20 37.125V40C8.9543 40 0 31.0457 0 20C0 8.9543 8.9543 0 20 0C31.0457 0 40 8.9543 40 20C40 31.0457 31.0457 40 20 40V37.125C29.4579 37.125 37.125 29.4579 37.125 20Z"
    fill="url(#activ-logo-ring-white)"
  />
  <path
    d="M22.6543 10.7705L28.0449 26.9893H24.1494L20.3789 14.458H19.5078L15.7373 26.9893H11.8418L17.2324 10.7705H22.6543Z"
    fill="#FFFFFF"
  />
  <path
    fill-rule="evenodd"
    clip-rule="evenodd"
    d="M66.6494 29.3108L66.6533 32.7766C66.654 33.8636 66.9513 36.0991 65.3242 35.9934C64.1938 35.9198 62.0714 36.2643 61.1367 35.6994C60.6367 35.3969 60.7489 33.0684 60.749 32.4924L60.7519 28.2707H61.9912C61.9905 29.0406 61.912 34.5646 62.0996 34.8713C62.4578 35.0283 64.9017 34.9772 65.3632 34.9094C65.4373 34.4687 65.4102 33.1407 65.4101 32.6408L65.4091 28.2697L66.6474 28.2678L66.6494 29.3108ZM86.6318 28.2356C87.979 28.2167 89.3271 28.2288 90.6738 28.2717C90.6643 28.5783 90.669 28.912 90.6679 29.2209L88.0253 29.217C87.492 29.2169 86.7374 29.1973 86.2304 29.2873C86.2024 29.7259 86.1114 34.77 86.3125 34.8723C86.5555 34.9935 89.4039 35.0317 89.7373 34.8547C89.8758 34.5489 89.8219 33.077 89.8183 32.6369C89.4782 32.6297 88.7208 32.7125 88.498 32.5422L88.4833 32.341L88.4951 31.6213L91.0224 31.6252C91.0166 32.7479 91.0814 33.8899 90.9609 35.0051C90.9579 35.5373 90.3669 35.9689 89.7685 35.9924H89.2363C88.0906 36.0157 85.8096 36.1628 85.3037 35.6418C84.7248 35.0439 85.0242 30.3893 85.0107 29.4475C84.995 28.3659 85.8193 28.2702 86.6318 28.2356ZM106.565 28.2346C107.751 28.2214 108.937 28.2316 110.122 28.2658L110.114 29.2639C108.929 29.2558 107.34 29.2058 106.187 29.2912C106.103 29.8852 106.134 31.3424 106.137 31.9973C106.14 32.7131 106.097 34.1885 106.187 34.8635C106.744 34.941 108.28 34.9051 108.911 34.9035L110.118 34.9065L110.12 35.966C109.208 35.9791 105.958 36.1711 105.36 35.7082C105.091 35.4997 104.989 35.175 104.949 34.8498C104.841 33.9593 104.897 33.0132 104.897 32.1164C104.898 31.2944 104.848 30.4345 104.931 29.6174C104.96 29.3279 105.003 28.8799 105.196 28.6555C105.541 28.2541 106.081 28.2554 106.565 28.2346ZM50.707 28.2346C51.8291 28.2224 52.9516 28.2336 54.0732 28.2678L54.0683 29.2111C53.5473 29.2095 50.6412 29.1332 50.3691 29.3303C50.2145 29.7142 50.2821 30.9317 50.3242 31.3752C51.4744 31.5188 53.1462 31.3021 54.1083 31.761C54.6591 32.0258 54.6601 35.2244 54.1455 35.674C53.7584 36.0111 53.0312 35.9725 52.5634 35.9846C51.4317 35.9902 50.2994 35.9831 49.1679 35.9641C49.1488 35.6173 49.1614 35.2921 49.1708 34.9455C50.317 34.9262 52.124 35.0125 53.206 34.8869C53.2821 34.4021 53.2733 33.0629 53.2109 32.5539C52.1615 32.3346 50.4378 32.6872 49.4833 32.1623C49.2669 32.0429 49.0742 31.455 49.0742 31.1721C49.0743 30.4695 48.9194 29.1358 49.374 28.5783C49.6407 28.2516 50.3271 28.25 50.707 28.2346ZM130.242 34.8986C131.357 34.9216 132.549 34.9047 133.67 34.9065L133.662 35.9582C132.191 36.0032 130.498 35.9609 129.01 35.9602L129.012 28.2727C129.422 28.2705 129.833 28.2704 130.243 28.2727L130.242 34.8986ZM118.687 28.258C119.183 28.2796 119.81 28.2682 120.314 28.2717C120.535 29.0581 120.987 30.2245 121.273 31.0354L123.009 35.9582C122.569 35.965 122.129 35.9643 121.689 35.9563C121.547 35.3566 121.171 34.354 120.965 33.7463L119.7 29.9572L119.471 29.3215C118.772 31.5139 117.979 33.7765 117.244 35.966L115.99 35.9582C116.876 33.3872 117.775 30.8199 118.687 28.258ZM98.5976 28.2707C98.5698 30.8138 98.5966 33.4116 98.5966 35.9592L97.3662 35.9621C97.3331 33.437 97.3509 30.7965 97.3691 28.2678L98.5976 28.2707ZM72.9882 28.2688C73.891 28.2659 77.8059 28.1071 78.2832 28.5022C78.5481 28.722 78.6523 29.117 78.6835 29.4455C78.7445 30.0885 78.8083 31.9169 78.4257 32.3635C78.1321 32.7062 77.737 32.7546 77.3134 32.7903L78.956 35.9572C78.4972 35.9641 78.028 35.96 77.5683 35.9611C77.532 35.8969 77.4771 35.7611 77.4443 35.6877C76.9827 34.7472 76.469 33.7552 76.0439 32.8039C75.4514 32.7915 74.8246 32.8003 74.2294 32.8C74.2215 33.853 74.2196 34.9072 74.2226 35.9602H72.9951C72.9583 33.4247 72.9887 30.8105 72.9882 28.2688ZM74.3974 29.2404L74.2714 29.2844C74.1792 29.5532 74.2229 31.3524 74.2265 31.7688C75.2416 31.7785 76.2573 31.7771 77.2724 31.7639C77.3666 31.6978 77.4204 31.663 77.4287 31.5149C77.4622 30.8974 77.4848 29.8877 77.4082 29.2932C76.5074 29.2002 75.3169 29.236 74.3974 29.2404ZM76.9531 4.01974C78.9357 3.97406 80.9548 4.01837 82.9384 4.04513C83.5555 4.05346 84.2242 4.08031 84.8378 4.13986L84.8349 7.13693L79.666 7.13303C78.7237 7.13269 77.7698 7.10579 76.8291 7.16818C75.8542 7.23586 75.7139 7.61364 75.7197 8.51486C75.7404 11.7505 75.6565 15.0028 75.7636 18.2346C75.7797 18.7166 76.2468 18.8734 76.663 18.9016C77.5558 18.962 78.4693 18.9395 79.3701 18.9397H84.8339C84.847 20.0033 84.8384 21.081 84.8378 22.1457C82.8651 22.2234 80.8872 22.2865 78.8964 22.2502C77.0286 22.2163 74.4054 22.4952 72.875 21.1877C71.9718 20.4161 71.7097 18.9035 71.6865 17.7707C71.6489 15.9391 71.6753 14.0683 71.6669 12.2326C71.7454 10.0989 71.2349 6.94927 72.7119 5.24142C73.673 4.13017 75.6044 4.06018 76.9531 4.01974ZM103.658 4.134L103.666 7.09201C101.487 7.14688 99.2549 7.07174 97.0654 7.11154L97.0625 14.0695C97.0629 14.9427 96.9592 18.0214 97.2626 18.5998C97.8394 19.0929 99.5722 18.9453 100.404 18.9416L103.656 18.9397L103.658 22.1477C102.269 22.1707 100.829 22.2503 99.4384 22.2483C97.8588 22.2416 95.2749 22.3813 94.0751 21.1418C92.731 19.7526 93.041 16.2943 93.041 14.4504L93.039 7.11447C91.862 7.07021 90.5869 7.11753 89.3867 7.09299L89.3906 4.12912L103.658 4.134ZM112.936 4.13595L112.935 22.1457C111.68 22.1867 110.201 22.1482 108.928 22.1477L108.930 4.12912C110.265 4.12354 111.601 4.12561 112.936 4.13595ZM135.999 4.13595C135.681 5.16962 135.313 6.23113 134.971 7.25998L131.877 16.636C131.309 18.356 130.573 20.4229 130.089 22.1447C128.126 22.185 126.04 22.1493 124.067 22.1496L118.13 4.13595C119.559 4.11285 121.028 4.12824 122.46 4.12814C122.585 4.69466 122.828 5.44222 123.001 6.01388L123.98 9.2297L126.646 18.0412L127.509 18.0481C128.83 13.4074 130.365 8.77745 131.687 4.134C133.096 4.1035 134.587 4.1258 135.999 4.13595ZM55.0205 4.11935C55.539 4.15529 56.474 4.12638 57.0195 4.12619C58.3531 4.12195 59.6868 4.12449 61.0205 4.13498C61.2325 4.96873 61.7212 6.28762 61.999 7.13595L65.9248 19.0656C66.2217 19.9701 66.6112 21.2726 66.9638 22.135C65.5882 22.1834 64.026 22.15 62.6367 22.1506C62.2371 20.6731 61.7089 19.0623 61.2597 17.5891L59.0195 10.1916C58.831 9.54005 58.6137 8.86581 58.414 8.21506L57.5683 8.22385C56.2523 12.8239 54.7612 17.5534 53.3769 22.1516L49.0644 22.1428L53.0595 10.0403C53.7093 8.07602 54.3459 6.07193 55.0205 4.11935Z"
    fill="#FFFFFF"
  />
</svg>
