<svg width="60" height="60" viewBox="0 0 60 60" fill="none" xmlns="http://www.w3.org/2000/svg">
<path d="M30.9993 39.5669C30.9992 39.7552 30.9733 39.9417 30.923 40.1156C30.8727 40.2895 30.799 40.4476 30.7061 40.5806C30.6132 40.7137 30.5029 40.8192 30.3816 40.8912C30.2603 40.9632 30.1303 41.0001 29.999 41C29.8677 40.9999 29.7377 40.9627 29.6165 40.8905C29.4952 40.8183 29.3851 40.7125 29.2923 40.5793C29.1996 40.446 29.126 40.2879 29.0758 40.1138C29.0257 39.9398 28.9999 39.7533 29 39.565L30.9993 39.5669ZM29.0007 27.8092C29.0007 27.4289 29.106 27.0641 29.2935 26.7952C29.4809 26.5262 29.7352 26.3752 30.0003 26.3752C30.2655 26.3752 30.5197 26.5262 30.7072 26.7952C30.8947 27.0641 31 27.4289 31 27.8092L29.0007 27.8092ZM31 27.7916C31 28.1719 30.8947 28.5367 30.7072 28.8056C30.5197 29.0746 30.2655 29.2256 30.0003 29.2256C29.7352 29.2256 29.4809 29.0746 29.2935 28.8056C29.106 28.5367 29.0007 28.1719 29.0007 27.7916L31 27.7916ZM29.0007 17.4341C29.0007 17.0537 29.106 16.689 29.2935 16.42C29.4809 16.1511 29.7352 16 30.0003 16C30.2655 16 30.5197 16.1511 30.7072 16.42C30.8947 16.689 31 17.0537 31 17.4341L29.0007 17.4341ZM29 39.565L29 39.5286L30.9993 39.5305L30.9993 39.5669L29 39.565ZM29 39.5286L29 39.1037L30.9993 39.106L30.9993 39.5305L29 39.5286ZM29 39.1037L29 38.6792L30.9993 38.6811L30.9993 39.106L29 39.1037ZM29 38.6792L29.0003 38.2542L30.9997 38.2561L30.9993 38.6811L29 38.6792ZM29.0003 38.2542L29.0007 37.8292L31 37.8311L30.9997 38.2561L29.0003 38.2542ZM29.0007 37.8292L29.0007 37.4043L31 37.4052L31 37.8311L29.0007 37.8292ZM29.0007 37.4043L29.0007 27.8092L31 27.8092L31 37.4052L29.0007 37.4043ZM29.0007 27.7916L29.0007 17.4341L31 17.4341L31 27.7916L29.0007 27.7916Z" fill="url(#paint0_linear_448_1374)"/>
<path d="M40.377 31.4285L31.5477 40.2573C31.3445 40.4605 31.1032 40.6218 30.8376 40.7318C30.572 40.8418 30.2874 40.8984 29.9999 40.8984C29.7125 40.8984 29.4278 40.8418 29.1622 40.7318C28.8966 40.6218 28.6553 40.4605 28.4521 40.2573L19.6233 31.4281" stroke="#000003" stroke-width="1.5" stroke-linecap="round" stroke-linejoin="round"/>
<path d="M55.6875 30C55.6875 15.8132 44.1868 4.3125 30 4.3125C15.8132 4.3125 4.3125 15.8132 4.3125 30C4.3125 44.1868 15.8132 55.6875 30 55.6875V60C13.4315 60 0 46.5685 0 30C0 13.4315 13.4315 0 30 0C46.5685 0 60 13.4315 60 30C60 46.5685 46.5685 60 30 60V55.6875C44.1868 55.6875 55.6875 44.1868 55.6875 30Z" fill="url(#paint1_linear_448_1374)"/>
<defs>
<linearGradient id="paint0_linear_448_1374" x1="30" y1="16" x2="30" y2="41" gradientUnits="userSpaceOnUse">
<stop stop-color="#000003" stop-opacity="0"/>
<stop offset="0.85" stop-color="#000003"/>
</linearGradient>
<linearGradient id="paint1_linear_448_1374" x1="4.73438" y1="4.73438" x2="60" y2="60" gradientUnits="userSpaceOnUse">
<stop stop-color="#FCFFA4"/>
<stop offset="0.1667" stop-color="#FBB91E"/>
<stop offset="0.3333" stop-color="#FF6626"/>
<stop offset="0.5" stop-color="#C43C4E"/>
<stop offset="0.6667" stop-color="#8F2468"/>
<stop offset="0.8333" stop-color="#410A67"/>
<stop offset="1" stop-color="#000003"/>
</linearGradient>
</defs>
</svg>
